<?xml version="1.0" encoding="UTF-8"?>
<svg xmlns="http://www.w3.org/2000/svg" xmlns:xlink="http://www.w3.org/1999/xlink" width="679pt" height="128pt" viewBox="0 0 679 128">
<path fill-rule="nonzero" fill="rgb(60.784912%, 12.548828%, 20.391846%)" fill-opacity="1" d="M 159.382812 36.132812 L 189.300781 36.132812 L 189.300781 70.28125 L 159.382812 70.28125 Z M 210.582031 6.640625 L 129.894531 6.640625 L 129.894531 121.207031 L 159.382812 121.207031 L 159.382812 99.769531 L 218.792969 99.769531 L 218.792969 6.640625 Z M 210.582031 6.640625 "/>
<path fill-rule="nonzero" fill="rgb(60.784912%, 12.548828%, 20.391846%)" fill-opacity="1" d="M 302.273438 91.71875 L 302.273438 6.640625 L 272.78125 6.640625 L 272.78125 121.207031 L 352.714844 121.207031 L 352.714844 91.71875 Z M 302.273438 91.71875 "/>
<path fill-rule="nonzero" fill="rgb(60.784912%, 12.548828%, 20.391846%)" fill-opacity="1" d="M 88.152344 6.640625 L 61.878906 34.484375 L 35.601562 6.640625 L 6.113281 6.640625 L 6.113281 121.207031 L 35.601562 121.207031 L 35.601562 51.945312 L 61.878906 79.789062 L 88.152344 51.945312 L 88.152344 121.207031 L 117.644531 121.207031 L 117.644531 6.640625 Z M 88.152344 6.640625 "/>
<path fill-rule="nonzero" fill="rgb(13.725281%, 9.803772%, 8.627319%)" fill-opacity="1" d="M 260.53125 36.132812 L 231.042969 36.132812 L 231.042969 6.640625 L 260.53125 6.640625 Z M 260.53125 36.132812 "/>
<path fill-rule="nonzero" fill="rgb(60.784912%, 12.548828%, 20.391846%)" fill-opacity="1" d="M 231.042969 121.207031 L 260.53125 121.207031 L 260.53125 43.339844 L 231.042969 43.339844 Z M 231.042969 121.207031 "/>
<path fill-rule="nonzero" fill="rgb(60.784912%, 12.548828%, 20.391846%)" fill-opacity="1" d="M 409.25 6.640625 L 379.761719 6.640625 L 379.761719 121.207031 L 459.691406 121.207031 L 459.691406 91.71875 L 409.25 91.71875 Z M 409.25 6.640625 "/>
<path fill-rule="nonzero" fill="rgb(60.784912%, 12.548828%, 20.391846%)" fill-opacity="1" d="M 509.136719 73.160156 L 514.542969 39.113281 L 525.464844 39.113281 L 530.871094 73.160156 Z M 547.648438 6.644531 L 490.128906 6.644531 L 471.941406 121.207031 L 501.507812 121.207031 L 504.453125 102.652344 L 535.550781 102.652344 L 538.5 121.207031 L 568.066406 121.207031 L 549.875 6.644531 Z M 547.648438 6.644531 "/>
<path fill-rule="nonzero" fill="rgb(60.784912%, 12.548828%, 20.391846%)" fill-opacity="1" d="M 642.789062 39.113281 L 632.726562 49.179688 L 609.808594 49.179688 L 609.808594 36.132812 L 642.789062 36.132812 Z M 642.789062 91.71875 L 609.808594 91.71875 L 609.808594 78.671875 L 632.726562 78.671875 L 642.789062 88.738281 Z M 653.117188 63.925781 L 672.28125 44.761719 L 672.28125 6.644531 L 580.316406 6.644531 L 580.316406 121.207031 L 672.28125 121.207031 L 672.28125 83.089844 Z M 653.117188 63.925781 "/>
</svg>
